<svg width="256" height="256" viewBox="0 0 256 256" fill="none" xmlns="http://www.w3.org/2000/svg">
<path d="M72 32C67.568 32 64 35.568 64 40V184C64 188.432 67.568 192 72 192H88C92.432 192 96 188.432 96 184V40C96 35.568 92.432 32 88 32H72ZM120 48C115.568 48 112 51.568 112 56V184C112 188.432 115.568 192 120 192H136C140.432 192 144 188.432 144 184V56C144 51.568 140.432 48 136 48H120ZM176.784 63.84C176.231 63.8792 175.685 63.9758 175.152 64.128L159.712 68.256C158.697 68.5288 157.746 68.9989 156.912 69.6396C156.079 70.2802 155.38 71.0788 154.856 71.9896C154.331 72.9005 153.991 73.9058 153.855 74.9481C153.72 75.9903 153.79 77.0491 154.064 78.064L183.024 186.256C183.297 187.273 183.767 188.226 184.409 189.06C185.051 189.895 185.851 190.595 186.764 191.119C187.676 191.644 188.683 191.983 189.728 192.118C190.772 192.253 191.832 192.18 192.848 191.904L208.288 187.744C210.331 187.193 212.072 185.855 213.131 184.022C214.189 182.19 214.479 180.013 213.936 177.968L184.976 69.776C184.5 67.9972 183.426 66.4369 181.933 65.3585C180.441 64.28 178.622 63.7333 176.784 63.84ZM24 64C19.568 64 16 67.568 16 72V184C16 188.432 19.568 192 24 192H40C44.432 192 48 188.432 48 184V72C48 67.568 44.432 64 40 64H24ZM24 208C21.8783 208 19.8434 208.843 18.3431 210.343C16.8429 211.843 16 213.878 16 216C16 218.122 16.8429 220.157 18.3431 221.657C19.8434 223.157 21.8783 224 24 224H216C218.122 224 220.157 223.157 221.657 221.657C223.157 220.157 224 218.122 224 216C224 213.878 223.157 211.843 221.657 210.343C220.157 208.843 218.122 208 216 208H24Z" fill="#A64D79"/>
</svg>
