<svg width="256" height="256" viewBox="0 0 256 256" fill="none" xmlns="http://www.w3.org/2000/svg">
<path d="M140.8 28.2667C137.107 25.4971 132.616 24 128 24C123.384 24 118.893 25.4971 115.2 28.2667L40.5333 84.2667C37.8838 86.2538 35.7333 88.8305 34.2522 91.7928C32.7711 94.755 32 98.0214 32 101.333V202.667C32 208.325 34.2476 213.751 38.2484 217.752C42.2492 221.752 47.6754 224 53.3333 224H94.9333C98.0452 224 101.03 222.764 103.23 220.563C105.43 218.363 106.667 215.379 106.667 212.267V160C106.667 154.342 108.914 148.916 112.915 144.915C116.916 140.914 122.342 138.667 128 138.667C133.658 138.667 139.084 140.914 143.085 144.915C147.086 148.916 149.333 154.342 149.333 160V212.267C149.333 215.379 150.57 218.363 152.77 220.563C154.97 222.764 157.955 224 161.067 224H202.667C208.325 224 213.751 221.752 217.752 217.752C221.752 213.751 224 208.325 224 202.667V101.333C224 98.0214 223.229 94.755 221.748 91.7928C220.267 88.8305 218.116 86.2538 215.467 84.2667L140.8 28.2667Z" fill="#A64D79"/>
</svg>
