<svg width="256" height="256" viewBox="0 0 256 256" fill="none" xmlns="http://www.w3.org/2000/svg">
<g clip-path="url(#clip0_1_3)">
<path d="M24.35 62.9L50.95 78.85C54.85 81.2 59.85 79.85 62.05 75.9L100.8 6.05C102.3 3.35 100.35 0 97.25 0C96.45 0 95.65 0.25 94.95 0.7L23.95 49.4C19.15 52.7 19.35 59.85 24.35 62.85V62.9ZM8 85.85V147.6C8 151.6 13.2 153.1 15.35 149.8L45.35 103.8C47.85 100 46.65 94.9 42.75 92.55L20.1 79C14.8 75.8 8 79.65 8 85.85ZM155.2 6.05L194 75.85C196.2 79.8 201.25 81.15 205.1 78.8L231.7 62.85C236.7 59.85 236.9 52.7 232.1 49.4L161.05 0.7C160.35 0.25 159.55 0 158.75 0C155.65 0 153.7 3.35 155.2 6.05ZM248 85.85C248 79.65 241.2 75.8 235.9 79L213.25 92.6C209.35 94.95 208.2 100.05 210.65 103.85L240.65 149.85C242.8 153.2 248 151.65 248 147.65V85.9V85.85ZM223.35 208.85L143.05 218.3C139 218.75 136 222.2 136 226.25V252.65C136 254.5 137.5 256.05 139.4 256.05C139.8 256.05 140.2 256 140.6 255.85L226.95 223.85C230 222.75 232 219.85 232 216.6C232 211.95 227.95 208.35 223.35 208.9V208.85ZM116.6 256C118.45 256 120 254.5 120 252.6V226.3C120 222.25 116.95 218.85 112.95 218.35L32.65 208.85C28.05 208.3 24 211.9 24 216.55C24 219.8 26 222.7 29.05 223.8L115.4 255.8C115.8 255.95 116.2 256 116.6 256ZM20.85 191.45L106.3 201.55C110.2 202 113 197.8 111.05 194.4L68.2 119.4C65.25 114.2 57.85 114 54.55 119L15.1 179.1C11.85 184.05 14.95 190.75 20.85 191.45ZM240.65 179.05L201.45 119.05C198.2 114.05 190.75 114.25 187.8 119.45L145.1 194.25C143.15 197.65 145.9 201.85 149.85 201.4L234.9 191.4C240.8 190.7 243.9 184.05 240.65 179.1V179.05ZM132.2 184.55L171.4 115.95C174.45 110.6 170.6 104 164.45 104H91.6C85.45 104 81.6 110.65 84.65 115.95L123.85 184.55C125.7 187.75 130.35 187.75 132.2 184.55ZM87.2 88H168.8C174.9 88 178.75 81.45 175.8 76.1L135.8 4.1C134.4 1.55 131.7 0 128.8 0H127.2C124.3 0 121.6 1.6 120.2 4.1L80.2 76.1C77.25 81.45 81.1 88 87.2 88Z" fill="#A64D79"/>
</g>
<defs>
<clipPath id="clip0_1_3">
<rect width="256" height="256" fill="white"/>
</clipPath>
</defs>
</svg>
